<svg width="191" height="39" viewBox="0 0 191 39" fill="none" xmlns="http://www.w3.org/2000/svg">
<path d="M0.607244 38H9.07884V19.6648C9.07884 16.2841 11.2266 14.0369 14.0504 14.0369C16.8345 14.0369 18.7038 15.946 18.7038 18.9489V38H26.9169V19.3466C26.9169 16.1847 28.7266 14.0369 31.8089 14.0369C34.5135 14.0369 36.5419 15.7273 36.5419 19.1278V38H44.9936V17.4574C44.9936 10.8352 41.0561 7.05682 35.3686 7.05682C30.8942 7.05682 27.4141 9.34375 26.1612 12.8438H25.843C24.8686 9.30398 21.7464 7.05682 17.5504 7.05682C13.4339 7.05682 10.3118 9.24432 9.03906 12.8438H8.68111V7.45454H0.607244V38ZM65.4865 38.5966C74.7536 38.5966 80.5206 32.2528 80.5206 22.8466C80.5206 13.3807 74.7536 7.05682 65.4865 7.05682C56.2195 7.05682 50.4524 13.3807 50.4524 22.8466C50.4524 32.2528 56.2195 38.5966 65.4865 38.5966ZM65.5263 32.0341C61.2507 32.0341 59.0632 28.1165 59.0632 22.7869C59.0632 17.4574 61.2507 13.5199 65.5263 13.5199C69.7223 13.5199 71.9098 17.4574 71.9098 22.7869C71.9098 28.1165 69.7223 32.0341 65.5263 32.0341ZM94.5007 20.3409C94.5206 16.4034 96.8672 14.0966 100.288 14.0966C103.688 14.0966 105.737 16.3239 105.717 20.0625V38H114.188V18.5511C114.188 11.4318 110.012 7.05682 103.648 7.05682C99.1143 7.05682 95.8331 9.28409 94.4609 12.8438H94.103V7.45454H86.0291V38H94.5007V20.3409ZM137.112 7.45454H131.365V0.136363H122.893V7.45454H118.717V13.8182H122.893V29.7273C122.854 35.7131 126.93 38.6761 133.075 38.4176C135.263 38.3381 136.814 37.9006 137.669 37.6222L136.337 31.3182C135.919 31.3977 135.024 31.5966 134.229 31.5966C132.538 31.5966 131.365 30.9602 131.365 28.6136V13.8182H137.112V7.45454ZM142.631 38H151.102V20.7188C151.102 16.9602 153.847 14.375 157.585 14.375C158.759 14.375 160.369 14.5739 161.165 14.8324V7.31534C160.409 7.13636 159.355 7.01704 158.5 7.01704C155.08 7.01704 152.276 9.00568 151.162 12.7841H150.844V7.45454H142.631V38ZM173.38 38.5767C177.894 38.5767 180.817 36.608 182.309 33.7642H182.548V38H190.582V17.3977C190.582 10.1193 184.417 7.05682 177.616 7.05682C170.298 7.05682 165.485 10.5568 164.312 16.125L172.147 16.7614C172.724 14.733 174.533 13.2415 177.576 13.2415C180.46 13.2415 182.11 14.6932 182.11 17.1989V17.3182C182.11 19.2869 180.022 19.5455 174.712 20.0625C168.667 20.6193 163.238 22.6477 163.238 29.4688C163.238 35.5142 167.553 38.5767 173.38 38.5767ZM175.806 32.7301C173.201 32.7301 171.332 31.517 171.332 29.1903C171.332 26.804 173.3 25.6307 176.283 25.2131C178.133 24.9545 181.156 24.517 182.17 23.8409V27.0824C182.17 30.2841 179.525 32.7301 175.806 32.7301Z" fill="white"/>
</svg>
