<svg width="343" height="56" viewBox="0 0 343 56" fill="none" xmlns="http://www.w3.org/2000/svg">
<rect width="343" height="56" rx="16" fill="#8F57FF"/>
<path d="M138.936 35V21.9091H143.845C144.85 21.9091 145.694 22.0966 146.376 22.4716C147.062 22.8466 147.58 23.3622 147.929 24.0185C148.283 24.6705 148.46 25.4119 148.46 26.2429C148.46 27.0824 148.283 27.8281 147.929 28.4801C147.576 29.1321 147.054 29.6456 146.363 30.0206C145.673 30.3913 144.823 30.5767 143.813 30.5767H140.559V28.6271H143.493C144.081 28.6271 144.563 28.5249 144.938 28.3203C145.313 28.1158 145.59 27.8345 145.769 27.4766C145.952 27.1186 146.044 26.7074 146.044 26.2429C146.044 25.7784 145.952 25.3693 145.769 25.0156C145.59 24.6619 145.311 24.3871 144.931 24.1911C144.556 23.9908 144.073 23.8906 143.48 23.8906H141.307V35H138.936ZM150.417 35V25.1818H152.661V26.8182H152.763C152.942 26.2514 153.249 25.8146 153.684 25.5078C154.123 25.1967 154.623 25.0412 155.186 25.0412C155.314 25.0412 155.456 25.0476 155.614 25.0604C155.776 25.0689 155.91 25.0838 156.017 25.1051V27.2337C155.919 27.1996 155.763 27.1697 155.55 27.1442C155.341 27.1143 155.139 27.0994 154.943 27.0994C154.521 27.0994 154.142 27.1911 153.805 27.3743C153.473 27.5533 153.211 27.8026 153.019 28.1222C152.827 28.4418 152.731 28.8104 152.731 29.228V35H150.417ZM157.554 35V25.1818H159.868V35H157.554ZM158.718 23.7884C158.351 23.7884 158.036 23.6669 157.771 23.424C157.507 23.1768 157.375 22.8807 157.375 22.5355C157.375 22.1861 157.507 21.8899 157.771 21.647C158.036 21.3999 158.351 21.2763 158.718 21.2763C159.088 21.2763 159.404 21.3999 159.664 21.647C159.928 21.8899 160.06 22.1861 160.06 22.5355C160.06 22.8807 159.928 23.1768 159.664 23.424C159.404 23.6669 159.088 23.7884 158.718 23.7884ZM162.248 35V25.1818H164.459V26.8501H164.574C164.779 26.2876 165.118 25.8487 165.591 25.5334C166.064 25.2138 166.628 25.054 167.284 25.054C167.949 25.054 168.51 25.2159 168.966 25.5398C169.426 25.8594 169.75 26.2962 169.937 26.8501H170.039C170.257 26.3047 170.623 25.87 171.139 25.5462C171.659 25.218 172.275 25.054 172.986 25.054C173.89 25.054 174.627 25.3395 175.198 25.9105C175.769 26.4815 176.054 27.3146 176.054 28.4098V35H173.734V28.7678C173.734 28.1584 173.572 27.7131 173.248 27.4318C172.924 27.1463 172.528 27.0036 172.059 27.0036C171.501 27.0036 171.064 27.1783 170.749 27.5277C170.438 27.8729 170.282 28.3224 170.282 28.8764V35H168.013V28.6719C168.013 28.1648 167.86 27.7599 167.553 27.4574C167.25 27.1548 166.854 27.0036 166.364 27.0036C166.032 27.0036 165.729 27.0888 165.456 27.2592C165.184 27.4254 164.966 27.6619 164.804 27.9688C164.642 28.2713 164.561 28.625 164.561 29.0298V35H162.248ZM181.227 35.1982C180.605 35.1982 180.045 35.0874 179.546 34.8658C179.052 34.6399 178.66 34.3075 178.37 33.8686C178.084 33.4297 177.942 32.8885 177.942 32.245C177.942 31.6911 178.044 31.233 178.248 30.8707C178.453 30.5085 178.732 30.2188 179.086 30.0014C179.439 29.7841 179.838 29.62 180.281 29.5092C180.729 29.3942 181.191 29.3111 181.668 29.2599C182.243 29.2003 182.71 29.147 183.068 29.1001C183.426 29.049 183.686 28.9723 183.848 28.87C184.014 28.7635 184.097 28.5994 184.097 28.3778V28.3395C184.097 27.858 183.954 27.4851 183.669 27.2209C183.383 26.9567 182.972 26.8246 182.435 26.8246C181.868 26.8246 181.419 26.9482 181.086 27.1953C180.758 27.4425 180.537 27.7344 180.422 28.071L178.261 27.7642C178.432 27.1676 178.713 26.669 179.105 26.2685C179.497 25.8636 179.976 25.5611 180.543 25.3608C181.11 25.1562 181.736 25.054 182.422 25.054C182.895 25.054 183.366 25.1094 183.835 25.2202C184.304 25.331 184.732 25.5142 185.12 25.7699C185.508 26.0213 185.819 26.3643 186.053 26.799C186.292 27.2337 186.411 27.777 186.411 28.429V35H184.187V33.6513H184.11C183.969 33.924 183.771 34.1797 183.515 34.4183C183.264 34.6527 182.947 34.8423 182.563 34.9872C182.184 35.1278 181.738 35.1982 181.227 35.1982ZM181.828 33.4979C182.292 33.4979 182.695 33.4062 183.036 33.223C183.377 33.0355 183.639 32.7884 183.822 32.4815C184.01 32.1747 184.104 31.8402 184.104 31.478V30.321C184.031 30.3807 183.907 30.4361 183.733 30.4872C183.562 30.5384 183.371 30.5831 183.157 30.6214C182.944 30.6598 182.733 30.6939 182.525 30.7237C182.316 30.7536 182.135 30.7791 181.981 30.8004C181.636 30.8473 181.327 30.924 181.055 31.0305C180.782 31.1371 180.567 31.2862 180.409 31.478C180.251 31.6655 180.172 31.9084 180.172 32.2067C180.172 32.6328 180.328 32.9545 180.639 33.1719C180.95 33.3892 181.346 33.4979 181.828 33.4979ZM188.738 35V25.1818H190.981V26.8182H191.084C191.263 26.2514 191.569 25.8146 192.004 25.5078C192.443 25.1967 192.944 25.0412 193.506 25.0412C193.634 25.0412 193.777 25.0476 193.934 25.0604C194.096 25.0689 194.231 25.0838 194.337 25.1051V27.2337C194.239 27.1996 194.084 27.1697 193.871 27.1442C193.662 27.1143 193.459 27.0994 193.263 27.0994C192.841 27.0994 192.462 27.1911 192.126 27.3743C191.793 27.5533 191.531 27.8026 191.339 28.1222C191.148 28.4418 191.052 28.8104 191.052 29.228V35H188.738ZM197.612 38.6818C197.296 38.6818 197.004 38.6563 196.736 38.6051C196.472 38.5582 196.261 38.5028 196.103 38.4389L196.64 36.6364C196.977 36.7344 197.277 36.7813 197.541 36.777C197.805 36.7727 198.038 36.6896 198.238 36.5277C198.442 36.37 198.615 36.1058 198.756 35.7351L198.954 35.2045L195.393 25.1818H197.848L200.111 32.5966H200.213L202.482 25.1818H204.943L201.012 36.1889C200.829 36.7088 200.586 37.1541 200.283 37.5249C199.981 37.8999 199.61 38.1854 199.171 38.3814C198.737 38.5817 198.217 38.6818 197.612 38.6818Z" fill="white"/>
</svg>
