<svg width="343" height="56" viewBox="0 0 343 56" fill="none" xmlns="http://www.w3.org/2000/svg">
<rect width="343" height="56" rx="16" fill="#EEE5FF"/>
<path d="M132.406 25.5078H134.688C134.643 23.2962 132.757 21.7301 129.97 21.7301C127.222 21.7301 125.157 23.277 125.163 25.5909C125.163 27.4702 126.499 28.5504 128.653 29.1065L130.143 29.4901C131.555 29.848 132.489 30.2891 132.495 31.3054C132.489 32.424 131.428 33.1719 129.881 33.1719C128.398 33.1719 127.247 32.5071 127.151 31.1328H124.818C124.914 33.7344 126.851 35.1982 129.9 35.1982C133.038 35.1982 134.86 33.6321 134.866 31.3246C134.86 29.0554 132.987 28.0199 131.018 27.5533L129.791 27.2464C128.717 26.9908 127.554 26.5369 127.567 25.4439C127.573 24.4595 128.455 23.7372 129.938 23.7372C131.351 23.7372 132.284 24.3956 132.406 25.5078ZM141.225 35.1918C143.513 35.1918 145.086 34.0732 145.495 32.3665L143.334 32.1236C143.021 32.9545 142.254 33.3892 141.257 33.3892C139.761 33.3892 138.77 32.4048 138.751 30.7237H145.591V30.0142C145.591 26.5689 143.52 25.054 141.104 25.054C138.291 25.054 136.456 27.1186 136.456 30.1484C136.456 33.2294 138.265 35.1918 141.225 35.1918ZM138.758 29.1641C138.828 27.9112 139.755 26.8565 141.135 26.8565C142.465 26.8565 143.36 27.8281 143.373 29.1641H138.758ZM151.831 35.1918C154.298 35.1918 155.871 33.728 156.037 31.6442H153.825C153.627 32.6989 152.866 33.3061 151.85 33.3061C150.406 33.3061 149.472 32.098 149.472 30.0909C149.472 28.1094 150.425 26.9205 151.85 26.9205C152.962 26.9205 153.646 27.6364 153.825 28.5824H156.037C155.877 26.4538 154.215 25.054 151.818 25.054C148.942 25.054 147.126 27.1314 147.126 30.1293C147.126 33.1016 148.897 35.1918 151.831 35.1918ZM162.22 35.1918C165.096 35.1918 166.924 33.1655 166.924 30.1293C166.924 27.0866 165.096 25.054 162.22 25.054C159.343 25.054 157.515 27.0866 157.515 30.1293C157.515 33.1655 159.343 35.1918 162.22 35.1918ZM162.232 33.3381C160.641 33.3381 159.861 31.919 159.861 30.1229C159.861 28.3267 160.641 26.8885 162.232 26.8885C163.798 26.8885 164.578 28.3267 164.578 30.1229C164.578 31.919 163.798 33.3381 162.232 33.3381ZM171.202 29.2472C171.202 27.8281 172.059 27.0099 173.279 27.0099C174.475 27.0099 175.191 27.7962 175.191 29.1065V35H177.505V28.7486C177.511 26.3963 176.169 25.054 174.142 25.054C172.672 25.054 171.662 25.7571 171.215 26.8501H171.1V25.1818H168.888V35H171.202V29.2472ZM183.5 35.1726C185.188 35.1726 185.949 34.169 186.313 33.4531H186.453V35H188.729V21.9091H186.409V26.8054H186.313C185.961 26.0959 185.239 25.054 183.507 25.054C181.238 25.054 179.454 26.831 179.454 30.1037C179.454 33.3381 181.186 35.1726 183.5 35.1726ZM184.146 33.2741C182.618 33.2741 181.813 31.9318 181.813 30.0909C181.813 28.2628 182.605 26.9524 184.146 26.9524C185.635 26.9524 186.453 28.1861 186.453 30.0909C186.453 31.9957 185.623 33.2741 184.146 33.2741ZM194.02 35.1982C195.561 35.1982 196.481 34.4759 196.903 33.6513H196.98V35H199.204V28.429C199.204 25.8338 197.088 25.054 195.215 25.054C193.151 25.054 191.566 25.9744 191.054 27.7642L193.215 28.071C193.445 27.3999 194.097 26.8246 195.228 26.8246C196.302 26.8246 196.89 27.3743 196.89 28.3395V28.3778C196.89 29.0426 196.193 29.0746 194.461 29.2599C192.556 29.4645 190.735 30.0334 190.735 32.245C190.735 34.1754 192.147 35.1982 194.02 35.1982ZM194.621 33.4979C193.656 33.4979 192.965 33.0568 192.965 32.2067C192.965 31.3182 193.739 30.9474 194.774 30.8004C195.382 30.7173 196.596 30.5639 196.896 30.321V31.478C196.896 32.571 196.014 33.4979 194.621 33.4979ZM201.531 35H203.845V29.228C203.845 27.9815 204.784 27.0994 206.056 27.0994C206.446 27.0994 206.932 27.1697 207.13 27.2337V25.1051C206.919 25.0668 206.555 25.0412 206.299 25.0412C205.174 25.0412 204.235 25.6804 203.877 26.8182H203.774V25.1818H201.531V35ZM210.404 38.6818C212.207 38.6818 213.249 37.755 213.805 36.1889L217.749 25.1946L215.275 25.1818L213.006 32.5966H212.904L210.641 25.1818H208.186L211.747 35.2045L211.549 35.7351C211.12 36.8537 210.443 36.9304 209.433 36.6364L208.896 38.4389C209.209 38.5668 209.772 38.6818 210.404 38.6818Z" fill="#7F3DFF"/>
</svg>
